<?xml version="1.0" encoding="UTF-8"?>
<svg width="23" height="23" viewBox="0 0 23 23" fill="none" xmlns="http://www.w3.org/2000/svg">
<path d="M3.23072 15.3323C3.30529 15.2424 3.37851 15.1526 3.45038 15.0659C4.43867 13.8705 5.03658 13.1491 5.03658 9.76512C5.03658 8.01316 5.4557 6.57566 6.28181 5.49754C6.89095 4.70107 7.71437 4.09688 8.79968 3.65035C8.81365 3.64258 8.82612 3.63239 8.83652 3.62025C9.22689 2.31303 10.2951 1.4375 11.4999 1.4375C12.7047 1.4375 13.7725 2.31303 14.1629 3.61891C14.1733 3.6306 14.1856 3.64047 14.1993 3.64811C16.732 4.69074 17.9628 6.69111 17.9628 9.76377C17.9628 13.1491 18.5599 13.8705 19.549 15.0646C19.6209 15.1512 19.6941 15.2393 19.7687 15.3309C19.9613 15.5632 20.0834 15.8459 20.1204 16.1454C20.1574 16.4449 20.1079 16.7487 19.9776 17.0209C19.7004 17.6049 19.1097 17.9674 18.4354 17.9674H4.55951C3.88837 17.9674 3.30169 17.6053 3.02363 17.024C2.8928 16.7518 2.84277 16.4477 2.87948 16.1478C2.91618 15.848 3.03808 15.565 3.23072 15.3323ZM11.4999 21.5625C10.8508 21.562 10.2139 21.3858 9.65681 21.0526C9.09971 20.7194 8.64318 20.2416 8.33564 19.6699C8.32115 19.6425 8.31399 19.6119 8.31487 19.5809C8.31574 19.5499 8.3246 19.5197 8.34061 19.4931C8.35661 19.4666 8.37921 19.4447 8.40621 19.4294C8.4332 19.4142 8.46367 19.4062 8.49466 19.4062H14.5043C14.5353 19.4061 14.5659 19.4141 14.5929 19.4293C14.62 19.4445 14.6426 19.4664 14.6587 19.4929C14.6748 19.5195 14.6837 19.5498 14.6846 19.5808C14.6854 19.6118 14.6783 19.6425 14.6638 19.6699C14.3563 20.2415 13.8998 20.7193 13.3428 21.0525C12.7858 21.3856 12.149 21.5619 11.4999 21.5625Z" fill="black"/>
</svg>
