<?xml version="1.0" encoding="UTF-8"?>
<svg width="34" height="33" viewBox="0 0 34 33" fill="none" xmlns="http://www.w3.org/2000/svg">
<path d="M33.0915 23.4087C32.6505 23.4087 32.283 23.7762 32.283 24.2172V27.598C32.283 29.6927 30.5926 31.3831 28.4979 31.3831H24.8231C24.3821 31.3831 24.0146 31.7506 24.0146 32.1915C24.0146 32.6325 24.3821 33 24.8231 33H28.4979C31.4746 33 33.9 30.5746 33.9 27.598V24.2172C33.9 23.7762 33.5325 23.4087 33.0915 23.4087Z" fill="#3581F3"/>
<path d="M28.4979 0H24.8231C24.3821 0 24.0146 0.367483 24.0146 0.808463C24.0146 1.24944 24.3821 1.61693 24.8231 1.61693H28.4979C30.5926 1.61693 32.283 3.30735 32.283 5.402V9.33407C32.283 9.77505 32.6505 10.1425 33.0915 10.1425C33.5325 10.1425 33.9 9.77505 33.9 9.33407V5.402C33.9 2.42539 31.4746 0 28.4979 0Z" fill="#3581F3"/>
<path d="M24.3454 16.0957C24.8966 16.0957 25.3376 15.6548 25.3743 15.1035V12.4577C25.3743 11.8697 24.9333 11.4287 24.3454 11.4287C23.7574 11.4287 23.3164 11.9064 23.3164 12.4577V15.0668C23.3164 15.6548 23.7941 16.0957 24.3454 16.0957Z" fill="#3581F3"/>
<path d="M22.4346 23.225C21.1116 24.5479 19.3477 25.2829 17.547 25.2829H17.253C15.4156 25.2829 13.6885 24.5479 12.3655 23.225C12.0715 22.8942 11.5571 22.8942 11.2263 23.225C10.8956 23.519 10.8956 24.0334 11.2263 24.3642C12.88 26.0179 15.0114 26.8998 17.253 26.8998H17.547C19.7887 26.8998 21.9568 26.0179 23.5738 24.3642C23.9045 24.0702 23.9045 23.5557 23.5738 23.225C23.2798 22.8942 22.7653 22.8942 22.4346 23.225Z" fill="#3581F3"/>
<path d="M15.3788 20.9832H15.5625C17.2162 20.9832 18.5391 19.6603 18.5391 18.0434V12.4576C18.5391 12.0167 18.1716 11.6492 17.7307 11.6492C17.2897 11.6492 16.9222 12.0167 16.9222 12.4576V18.0066C16.9222 18.7783 16.2975 19.3663 15.5625 19.3663H15.3788C14.9378 19.3663 14.5703 19.7338 14.5703 20.1748C14.5703 20.6158 14.9378 20.9832 15.3788 20.9832Z" fill="#3581F3"/>
<path d="M9.94009 11.4287C9.35211 11.4287 8.91113 11.9064 8.91113 12.4577V15.0668C8.91113 15.6548 9.38886 16.0957 9.94009 16.0957C10.5281 16.0957 10.969 15.6548 10.969 15.1035V12.4577C10.969 11.8697 10.4913 11.4287 9.94009 11.4287Z" fill="#3581F3"/>
<path d="M1.70849 10.1425C2.14947 10.1425 2.51695 9.77505 2.51695 9.33407V5.402C2.51695 3.30735 4.20737 1.61693 6.30203 1.61693H9.97686C10.4178 1.61693 10.7853 1.24944 10.7853 0.808463C10.7853 0.367483 10.4178 0 9.97686 0H6.30203C3.32541 0 0.900024 2.42539 0.900024 5.402V9.33407C0.900024 9.77505 1.26751 10.1425 1.70849 10.1425Z" fill="#3581F3"/>
<path d="M9.94012 31.3831H6.26529C4.17063 31.3831 2.48021 29.6927 2.48021 27.598V24.2172C2.48021 23.7762 2.11272 23.4087 1.67174 23.4087C1.23076 23.4087 0.863281 23.7762 0.863281 24.2172V27.598C0.863281 30.5746 3.28867 33 6.26529 33H9.94012C10.4178 33 10.7486 32.6325 10.7486 32.1915C10.7486 31.7506 10.3811 31.3831 9.94012 31.3831Z" fill="#3581F3"/>
</svg>
