<svg width="6" height="9" viewBox="0 0 6 9" fill="none" xmlns="http://www.w3.org/2000/svg">
<path fill-rule="evenodd" clip-rule="evenodd" d="M2.79409 0.955863C4.25606 1.13537 5.29575 2.46607 5.11624 3.92806C4.94558 5.31776 3.73481 6.32585 2.35983 6.26799L2.1654 7.85055C2.11688 8.24569 1.75723 8.52665 1.3621 8.47817L1.07592 8.44302C0.680788 8.3945 0.399801 8.03484 0.448318 7.63974L1.11595 2.20229C1.16446 1.80716 1.52411 1.52617 1.91925 1.57468L2.20542 1.60982C2.60056 1.65834 2.88155 2.01799 2.83303 2.41312L2.48629 5.23678C2.96647 4.8211 3.5069 4.29165 3.58356 3.66725C3.76307 2.20526 1.3321 0.776352 2.79409 0.955863Z" stroke="white" stroke-width="0.681506"/>
</svg>
