<?xml version="1.0" encoding="UTF-8"?>
<svg width="18" height="18" viewBox="0 0 18 18" fill="none" xmlns="http://www.w3.org/2000/svg">
<path d="M13.4999 11.8125C13.1969 11.8124 12.897 11.8737 12.6183 11.9927C12.3396 12.1118 12.088 12.2861 11.8785 12.5051L6.67541 9.57762C6.77619 9.19914 6.77619 8.80087 6.67541 8.42239L11.8785 5.49493C12.2574 5.88774 12.7665 6.12894 13.3105 6.17333C13.8544 6.21772 14.3959 6.06226 14.8335 5.73608C15.271 5.40989 15.5747 4.93536 15.6875 4.40138C15.8003 3.8674 15.7145 3.31061 15.4462 2.83533C15.178 2.36004 14.7456 1.99886 14.2302 1.81947C13.7148 1.64007 13.1516 1.65475 12.6462 1.86077C12.1408 2.06679 11.7279 2.45 11.4848 2.93863C11.2417 3.42725 11.185 3.98775 11.3255 4.51512L6.1224 7.44258C5.8116 7.11852 5.41095 6.89487 4.972 6.80038C4.53304 6.7059 4.07585 6.74491 3.65925 6.9124C3.24265 7.07989 2.88568 7.36819 2.63428 7.74022C2.38288 8.11225 2.24854 8.55099 2.24854 9C2.24854 9.44901 2.38288 9.88776 2.63428 10.2598C2.88568 10.6318 3.24265 10.9201 3.65925 11.0876C4.07585 11.2551 4.53304 11.2941 4.972 11.1996C5.41095 11.1051 5.8116 10.8815 6.1224 10.5574L11.3255 13.4849C11.2049 13.9391 11.2295 14.4196 11.3959 14.8591C11.5622 15.2986 11.862 15.6749 12.2532 15.9354C12.6443 16.1958 13.1072 16.3272 13.5769 16.3112C14.0465 16.2952 14.4994 16.1325 14.8718 15.846C15.2443 15.5595 15.5178 15.1636 15.6538 14.7138C15.7898 14.264 15.7816 13.7829 15.6303 13.338C15.479 12.8931 15.1921 12.5067 14.8101 12.2332C14.428 11.9596 13.9699 11.8125 13.4999 11.8125Z" fill="#3581F3"/>
</svg>
